<?xml version="1.0" encoding="UTF-8" standalone="no"?>
<!-- Created with Inkscape (http://www.inkscape.org/) -->

<svg
   xmlns:dc="http://purl.org/dc/elements/1.1/"
   xmlns:cc="http://creativecommons.org/ns#"
   xmlns:rdf="http://www.w3.org/1999/02/22-rdf-syntax-ns#"
   xmlns:svg="http://www.w3.org/2000/svg"
   xmlns="http://www.w3.org/2000/svg"
   xmlns:sodipodi="http://sodipodi.sourceforge.net/DTD/sodipodi-0.dtd"
   xmlns:inkscape="http://www.inkscape.org/namespaces/inkscape"
   id="svg2"
   version="1.1"
   inkscape:version="0.91 r13725"
   xml:space="preserve"
   width="2048.75"
   height="437.5"
   viewBox="0 0 2048.75 437.5"
   sodipodi:docname="microsoft.svg"><metadata
     id="metadata8"><rdf:RDF><cc:Work
         rdf:about=""><dc:format>image/svg+xml</dc:format><dc:type
           rdf:resource="http://purl.org/dc/dcmitype/StillImage" /><dc:title /></cc:Work></rdf:RDF></metadata><defs
     id="defs6" /><sodipodi:namedview
     pagecolor="#ffffff"
     bordercolor="#666666"
     borderopacity="1"
     objecttolerance="10"
     gridtolerance="10"
     guidetolerance="10"
     inkscape:pageopacity="0"
     inkscape:pageshadow="2"
     inkscape:window-width="1465"
     inkscape:window-height="991"
     id="namedview4"
     showgrid="false"
     inkscape:zoom="0.17913362"
     inkscape:cx="1024.375"
     inkscape:cy="218.75"
     inkscape:window-x="0"
     inkscape:window-y="24"
     inkscape:window-maximized="0"
     inkscape:current-layer="g12" /><g
     id="g10"
     inkscape:groupmode="layer"
     inkscape:label="ink_ext_XXXXXX"
     transform="matrix(1.25,0,0,-1.25,0,437.5)"><g
       id="g12"
       transform="scale(0.111725,0.111725)"><path
         d="m 0,3132.7 1490.27,0 c -0.09,-496.75 0,-993.51 -0.09,-1490.27 -496.664,0 -993.422,0 -1490.18,0 L 0,3132.7"
         style="fill:#f25022;fill-opacity:1;fill-rule:nonzero;stroke:none"
         id="path14"
         inkscape:connector-curvature="0" /><path
         d="m 1642.43,3132.7 1490.27,0 c 0,-496.75 0.09,-993.51 -0.09,-1490.27 -496.66,0.09 -993.42,0 -1490.09,0 -0.18,496.76 -0.09,993.52 -0.09,1490.27"
         style="fill:#80ba01;fill-opacity:1;fill-rule:nonzero;stroke:none"
         id="path18"
         inkscape:connector-curvature="0" /><path
         d="m 13438.8,2564.88 c 137.4,89.41 314.9,97.74 469.8,55.14 1.3,-92.02 0.2,-184.12 0.6,-276.22 -73.6,32.4 -160.1,53.52 -237.5,21.75 -61.4,-24.35 -98,-87.36 -107.5,-150.37 -11.6,-79.93 -4.1,-160.93 -6,-241.31 157.1,-0.36 314.3,-0.09 471.5,-0.18 1.1,102.04 -1.3,204.17 1.3,306.2 106.9,30.43 212.6,64.54 318.9,96.58 0.9,-134.44 -1.2,-268.97 1.2,-403.49 106.2,1.52 212.6,0.36 318.9,0.71 l 0,-261.71 c -106.7,4.38 -213.5,1.16 -320.2,1.52 0.5,-150.46 0.1,-300.92 0.2,-451.47 1.7,-83.33 -4.5,-167.1 5.3,-250.17 5.9,-48.958 23.7,-103.196 69.6,-128.528 76.9,-43.051 174.5,-24.254 245.1,23.004 l 0,-264.313 c -92.1,-40.007 -195,-52.179 -294.7,-45.109 -94.5,6.981 -192.4,41.352 -254.1,116.535 -71.2,84.942 -89.6,199.957 -91,307.541 -0.8,230.93 0.1,461.85 -0.3,692.87 -157.3,0.09 -314.6,0.18 -471.7,-0.09 -0.2,-362.41 -0.1,-724.821 -0.1,-1087.231 -107.4,0 -214.9,0 -322.3,0 0,362.32 -0.5,724.551 0.1,1086.871 -74.7,1.43 -149.5,-0.36 -224.3,1.16 0.3,86.02 0.7,172.12 -0.1,258.23 74.3,1.7 148.8,0.98 223.4,0.45 5.4,114.38 -12,232.08 22.2,343.52 28.9,100.6 93.1,191.36 181.7,248.11"
         style="fill:#777777;fill-opacity:1;fill-rule:nonzero;stroke:none"
         id="path20"
         inkscape:connector-curvature="0" /><path
         d="m 6538.13,2546.08 c 64.98,9.85 135.33,-12.35 178.39,-63.19 50.48,-55.67 59.78,-144.28 22.37,-209.35 -41.35,-73.4 -133.9,-107.5 -214.54,-89.87 -83.69,15.04 -153.42,92.82 -149.66,179.55 -2.41,91.3 73.94,172.66 163.44,182.86"
         style="fill:#777777;fill-opacity:1;fill-rule:nonzero;stroke:none"
         id="path22"
         inkscape:connector-curvature="0" /><path
         d="m 4068.04,2506.16 c 156.28,0 312.46,0 468.74,0 145.9,-370.46 292.86,-740.57 438.93,-1111.03 37.33,-92.64 72.24,-186.35 111.35,-278.28 187.7,462.93 378.08,924.69 564.33,1388.24 150.29,2.41 300.66,0.54 451.02,0.89 -0.35,-626.45 -0.17,-1252.9 -0.08,-1879.351 -108.49,0.269 -216.88,-0.895 -325.27,0.629 1.17,462.292 -0.09,924.592 0.54,1386.982 0.18,20.76 -0.54,41.53 -1.97,62.3 -6.35,-9.67 -11.99,-19.7 -16.92,-30.08 -186.26,-473.22 -376.1,-945.09 -561.29,-1418.757 -77.15,-2.773 -154.4,-0.18 -231.64,-1.43 -192.17,473.217 -381.92,947.507 -573.1,1421.087 -5.02,9.84 -10.39,19.42 -16.2,28.64 -3.94,-202.55 -0.63,-405.29 -1.71,-607.84 0.09,-280.51 -0.17,-561.019 0.09,-841.531 -102.3,-0.266 -204.61,0 -306.82,-0.09 -0.09,626.541 -0.18,1253.081 0,1879.621"
         style="fill:#777777;fill-opacity:1;fill-rule:nonzero;stroke:none"
         id="path24"
         inkscape:connector-curvature="0" /><path
         d="m 7425.13,1974.95 c 155.57,44.3 323.3,42.51 478.77,-1.44 32.04,-8.95 63.1,-21.39 91.92,-38.31 -1.79,-102.66 0,-205.41 -0.98,-308.16 -103.92,79.39 -235.76,129.69 -367.87,113.04 -104.9,-9.49 -204.97,-63.9 -267.71,-148.67 -80.65,-105.08 -99.26,-244.62 -85.39,-373.15 10.38,-100.6 52,-201.12 130.23,-267.799 81.27,-72.231 195.21,-97.828 301.54,-89.773 105.08,12.082 204.25,56.566 289.2,118.683 0.89,-97.293 -0.45,-194.586 0.71,-291.879 -131.75,-78.406 -289.73,-98.633 -440.55,-91.203 -154.3,8.145 -308.16,66.59 -419.87,175.07 -121.36,116.985 -187.24,283.821 -195.03,450.931 -7.88,173.73 27.48,354.98 127.46,500.07 83.78,123.79 214.81,211.41 357.57,252.59"
         style="fill:#777777;fill-opacity:1;fill-rule:nonzero;stroke:none"
         id="path26"
         inkscape:connector-curvature="0" /><path
         d="m 9608.8,1998.13 c 154.67,19.69 317.84,10.92 461.4,-54.42 124.6,-56.21 225.6,-160.13 281.5,-284.54 59.7,-132.47 74.2,-281.23 64.1,-424.88 -9.9,-140.26 -54,-280.786 -141.7,-392.22 -89.8,-118.328 -225.1,-198.523 -370.01,-228.328 -123.88,-25.777 -253.48,-25.687 -377.36,0.356 -148.22,31.687 -285.44,117.703 -372.34,242.832 -102.04,145 -131.04,329.38 -118.06,503.11 8.77,147.42 54.6,296 148.76,411.64 103.11,129.51 261.26,205.95 423.71,226.45"
         style="fill:#777777;fill-opacity:1;fill-rule:nonzero;stroke:none"
         id="path28"
         inkscape:connector-curvature="0" /><path
         d="m 10945.8,1995.44 c 149.1,26.23 305.1,6.98 446.1,-46.45 0.2,-98.81 0,-197.54 0.1,-296.27 -98.5,67.76 -218.9,104.19 -338.5,99.98 -60.2,-2.32 -126.5,-27.83 -153.9,-85.12 -21.9,-56.65 -6.7,-130.94 46.7,-164.87 91.4,-61.13 200.4,-87.08 295.1,-141.86 74.5,-41.89 146.9,-96.67 184.6,-175.62 71,-147.86 40.9,-343.25 -83.8,-453.519 -119.2,-111.348 -290.7,-142.137 -448.5,-136.231 -112.1,7.25 -224.7,29.36 -327.7,75.188 0.4,103.914 -0.6,207.742 0.5,311.57 86.7,-62.925 186.6,-107.945 292.4,-126.203 73.7,-11.996 153.8,-12.531 222.5,20.406 65.7,32.668 77.5,126.019 38.4,183.129 -36.5,44.04 -90.1,68.29 -140.7,92.1 -94.9,42.7 -194.7,78.41 -278.1,142.4 -58.7,45.74 -103.1,110.19 -120.4,182.86 -25.8,107.14 -17.8,227.89 44.5,321.51 71.2,109.11 194.8,174.54 320.7,197"
         style="fill:#777777;fill-opacity:1;fill-rule:nonzero;stroke:none"
         id="path30"
         inkscape:connector-curvature="0" /><path
         d="m 12177.7,1998.57 c 160.9,19.97 331.6,9.13 478.4,-64.98 128,-63.99 227.3,-179.63 276.9,-313.36 38.7,-102.3 52.3,-212.75 50.1,-321.68 0.3,-162.72 -43.7,-329.737 -145.8,-458.808 -95.6,-124.949 -241.9,-206.129 -396.3,-231.64 -151,-24.434 -310.5,-18.079 -453.9,38.398 -145.4,57.195 -266.2,173.91 -327.4,317.656 -63.9,146.524 -70.6,311.394 -50.7,467.934 20.8,156.55 91.7,309.6 212.6,413.7 99,86.91 226.4,136.14 356.1,152.78"
         style="fill:#777777;fill-opacity:1;fill-rule:nonzero;stroke:none"
         id="path32"
         inkscape:connector-curvature="0" /><path
         d="m 8716.52,1953.02 c 88.97,53.43 202.02,57.91 299.13,25.24 -0.45,-107.5 0,-214.99 -0.27,-322.49 -63.55,41.17 -142.85,58.8 -217.85,51.19 -91.48,-10.38 -163.98,-80.64 -201.57,-161.19 -40.82,-85.31 -48.51,-181.79 -45.92,-275.06 0,-214.72 0.09,-429.444 0,-644.171 -105.97,0 -211.86,0 -317.74,0 -0.27,448.781 0.35,897.661 -0.27,1346.441 106.06,1.34 212.13,0.8 318.19,0.27 -0.45,-77.07 0,-154.13 -0.27,-231.29 34.46,83.87 85.75,165.32 166.57,211.06"
         style="fill:#777777;fill-opacity:1;fill-rule:nonzero;stroke:none"
         id="path34"
         inkscape:connector-curvature="0" /><path
         d="m 6403.96,1973.25 c 106.87,0.44 213.83,1.52 320.7,-0.54 -1.25,-448.69 -0.09,-897.48 -0.53,-1346.171 -106.7,0 -213.39,0 -319.99,0 -0.27,448.871 0.09,897.751 -0.18,1346.711"
         style="fill:#777777;fill-opacity:1;fill-rule:nonzero;stroke:none"
         id="path36"
         inkscape:connector-curvature="0" /><path
         d="m 9704.93,1742.32 c 96.85,6.36 199.96,-21.03 269.6,-91.48 74.47,-73.21 103.27,-179.45 111.27,-280.77 5.7,-110.9 1.1,-226.45 -45.4,-329.21 -30.8,-69.274 -87.18,-127.813 -158.33,-155.559 -83.24,-31.953 -176.78,-33.832 -262.7,-11.547 -87.45,23.004 -161.65,86.195 -202.02,166.656 -51.91,103.65 -59.7,223.5 -48.96,337.17 9.76,103.38 45.74,209.72 124.5,281.05 57.11,53.35 134.98,79.39 212.04,83.69"
         style="fill:#fefefe;fill-opacity:1;fill-rule:nonzero;stroke:none"
         id="path38"
         inkscape:connector-curvature="0" /><path
         d="m 12264.7,1742.05 c 91,6.36 188.2,-14.68 258.2,-76.17 64.6,-53.52 100.3,-133.72 116.7,-214.45 18.4,-94.7 18.2,-192.71 2.6,-287.86 -12.3,-70.88 -36.8,-141.59 -83.3,-197.715 -46.8,-56.386 -116.4,-90.757 -188.3,-101.32 -77.2,-11.543 -158.4,-5.996 -230.6,25.063 -77.8,32.937 -138.2,100.336 -169.9,177.852 -38.3,92.37 -45.9,194.67 -38.3,293.49 7.4,95.68 34.5,193.86 97.7,268.24 57.6,69.46 146.1,107.86 235.2,112.87"
         style="fill:#fefefe;fill-opacity:1;fill-rule:nonzero;stroke:none"
         id="path40"
         inkscape:connector-curvature="0" /><path
         d="m 14349.8,1713.5 c 106.7,-0.36 213.5,2.86 320.2,-1.52 l 0,-805.644 c -70.6,-47.258 -168.2,-66.055 -245.1,-23.004 -45.9,25.332 -63.7,79.57 -69.6,128.528 -9.8,83.07 -3.6,166.84 -5.3,250.17 -0.1,150.55 0.3,301.01 -0.2,451.47"
         style="fill:#fefefe;fill-opacity:1;fill-rule:nonzero;stroke:none"
         id="path42"
         inkscape:connector-curvature="0" /><path
         d="m 0,1490.36 c 496.758,-0.18 993.516,0.09 1490.27,-0.18 0.09,-496.754 0,-993.422 0,-1490.18 L 0,0 0,1490.36"
         style="fill:#02a4ef;fill-opacity:1;fill-rule:nonzero;stroke:none"
         id="path44"
         inkscape:connector-curvature="0" /><path
         d="m 1642.52,1490.18 c 496.67,0.18 993.43,0.09 1490.18,0.09 0,-496.754 0,-993.512 0,-1490.27 L 1642.43,0 c 0.09,496.758 -0.09,993.516 0.09,1490.18"
         style="fill:#ffb902;fill-opacity:1;fill-rule:nonzero;stroke:none"
         id="path46"
         inkscape:connector-curvature="0" /></g></g></svg>