<?xml version="1.0" encoding="utf-8"?>
<!-- Generator: Adobe Illustrator 22.0.1, SVG Export Plug-In . SVG Version: 6.00 Build 0)  -->
<svg version="1.1" id="Layer_1" xmlns="http://www.w3.org/2000/svg" xmlns:xlink="http://www.w3.org/1999/xlink" x="0px" y="0px"
	 viewBox="0 0 612 198" style="enable-background:new 0 0 612 198;" xml:space="preserve">
<style type="text/css">
	.st0{fill:#808285;}
	.st1{fill:#231F20;}
	.st2{fill:#EB0A1E;}
</style>
<g>
	<path class="st0" d="M56.9,167.1c0,0,2.8,4.8,5.6,6.4c2.8,1.6,8.4,1.7,8.4,1.7h78.6c0,0-31.6-1-73.4-25.2
		c-41.9-24.2-58.5-51-58.5-51L56.9,167.1z"/>
	<path class="st1" d="M188.8,107.1c0,0,2.7-4.8,2.7-8.1c0-3.2-2.7-8.1-2.7-8.1l-39.3-68.1c0,0,14.9,27.8,14.9,76.2
		c0,48.3-14.9,76.2-14.9,76.2L188.8,107.1z"/>
	<path class="st2" d="M70.9,22.8c0,0-5.6,0-8.4,1.7c-2.8,1.6-5.6,6.4-5.6,6.4L17.6,99c0,0,16.6-26.8,58.5-51s73.4-25.2,73.4-25.2
		H70.9z"/>
	<polygon class="st2" points="247.2,66 214.8,66 214.8,73.1 226.7,73.1 226.7,103.8 235.2,103.8 235.2,73.1 247.2,73.1 	"/>
	<path class="st2" d="M269.2,64.8c-11.1,0-20,9-20,20c0,11.1,9,20,20,20c11.1,0,20-9,20-20S280.2,64.8,269.2,64.8 M279,90.9
		c-1.3,3.3-4.3,5.8-7.8,6.4c-0.6,0.1-1.3,0.2-2,0.2s-1.3-0.1-2-0.2c-3.6-0.6-6.5-3.1-7.8-6.4c-0.7-1.9-1.1-3.9-1.1-6.1
		c0-2.1,0.4-4.2,1.1-6.1c1.3-3.3,4.3-5.8,7.8-6.4c0.6-0.1,1.3-0.2,2-0.2s1.3,0.1,2,0.2c3.6,0.6,6.5,3.1,7.8,6.4
		c0.7,1.9,1.1,3.9,1.1,6.1S279.7,89,279,90.9"/>
	<polygon class="st2" points="289.4,66 299.4,66 308.7,82.2 318.1,66 328.1,66 313,89.8 313,103.8 304.5,103.8 304.5,89.8 	"/>
	<path class="st2" d="M328.3,84.9c0-11.1,9-20,20-20c11.1,0,20,9,20,20c0,11.1-9,20-20,20C337.2,104.9,328.3,95.9,328.3,84.9
		 M348.3,97.5c0.7,0,1.3-0.1,2-0.2c3.6-0.6,6.6-3.1,7.9-6.4c0.7-1.9,1.1-3.9,1.1-6.1c0-2.1-0.4-4.2-1.1-6.1
		c-1.3-3.3-4.3-5.8-7.9-6.4c-0.6-0.1-1.3-0.2-2-0.2s-1.3,0.1-2,0.2c-3.6,0.6-6.6,3.1-7.9,6.4c-0.7,1.9-1.1,3.9-1.1,6.1
		c0,2.1,0.4,4.2,1.1,6.1c1.3,3.3,4.3,5.8,7.9,6.4C347,97.5,347.6,97.5,348.3,97.5"/>
	<path class="st2" d="M428.8,95.4h-16.1l-3.1,8.3h-9.5l15.3-37.8H426l15.3,37.8h-9.5L428.8,95.4z M426.4,88.8l-5.6-14.9l-5.6,14.9
		H426.4z"/>
	<polygon class="st2" points="402.7,66 370.2,66 370.2,73.1 382.2,73.1 382.2,103.8 390.7,103.8 390.7,73.1 402.7,73.1 	"/>
	<polygon class="st0" points="474.3,121 481.3,121 481.3,139.1 486.4,139.1 486.3,121 493.4,121 493.4,116.8 474.3,116.8 	"/>
	<polygon class="st0" points="506.4,121 513.4,121 513.4,139.1 518.4,139.1 518.4,121 525.5,121 525.5,116.8 506.4,116.8 	"/>
	<polygon class="st0" points="553,121 560.1,121 560.1,139.1 565.1,139.1 565.1,121 572.2,121 572.2,116.8 553,116.8 	"/>
	<polygon class="st0" points="441.7,130.2 432.2,116.8 427.1,116.8 427.1,139.1 432.2,139.1 432.2,125.6 441.7,139.1 446.7,139.1 
		446.7,116.8 441.7,116.8 	"/>
	<rect x="416.9" y="116.8" class="st0" width="5" height="22.3"/>
	<rect x="497.4" y="116.8" class="st0" width="5" height="22.3"/>
	<polygon class="st0" points="581.1,134.8 581.1,129.8 592.4,129.8 592.4,125.6 581.1,125.6 581.1,121 594.2,121 594.2,116.8 
		576.1,116.8 576.1,116.8 576.1,139.1 576.1,139.1 594.4,139.1 594.4,134.8 	"/>
	<path class="st0" d="M544,129.8c0,3.8-1.3,5.6-4.8,5.6s-4.8-1.8-4.8-5.6v-13h-5v13v1.8c0,5,4.3,8.1,9.8,8.1s9.8-3.2,9.8-8.1v-1.8
		v-13h-5V129.8z"/>
	<path class="st0" d="M461.1,125.6c-2.7-0.4-4-1.4-4-2.7c0-1.7,1.5-2.4,4-2.4c2.4,0,4,0.6,4,2.9h5.3c0-5.1-4.1-7.2-9.3-7.2
		c-5.2,0-9.3,2.2-9.3,7.2c0,4.1,4.4,5.6,9.3,6.4c3.9,0.6,4.6,1.7,4.6,2.8c0,2.6-2.2,2.9-4.6,2.9s-4.6-0.7-4.6-3.3h-5.4
		c0,5.6,4.8,7.7,10,7.7s10-2,10-7.7C471.1,127.8,465.9,126.4,461.1,125.6"/>
	<polygon class="st1" points="243.7,129.8 255,129.8 255,125.6 243.7,125.6 243.7,121 256.8,121 256.8,116.8 238.7,116.8 
		238.7,116.8 238.7,139.1 238.7,139.1 257,139.1 257,134.8 243.7,134.8 	"/>
	<polygon class="st1" points="289.9,129.8 301.1,129.8 301.1,125.6 289.9,125.6 289.9,121 302.9,121 302.9,116.8 284.8,116.8 
		284.8,139.1 303.1,139.1 303.1,134.8 289.9,134.8 	"/>
	<polygon class="st1" points="397.3,116.8 397.3,125.6 387.7,125.6 387.7,116.8 382.7,116.8 382.7,125.6 382.7,129.8 382.7,139.1 
		387.7,139.1 387.7,129.8 397.3,129.8 397.3,139.1 402.3,139.1 402.3,129.8 402.3,125.6 402.3,116.8 	"/>
	<path class="st1" d="M233.7,123.4c0-4.1-2.2-6.6-7.8-6.6h-11.1v22.3h5v-9h3.9l5.5,9h6l-5.7-9.5
		C232.4,128.7,233.7,126.5,233.7,123.4 M226.3,125.8h-6.5V121h6.5c0.8,0,2.4,0.6,2.4,2.4S227.1,125.8,226.3,125.8"/>
	<path class="st1" d="M352.3,123.4c0-4.1-2.2-6.6-7.8-6.6h-11.1v22.3h5v-9h3.9l5.5,9h6l-5.7-9.5C351,128.7,352.3,126.5,352.3,123.4
		 M344.9,125.8h-6.5V121h6.5c0.8,0,2.4,0.6,2.4,2.4S345.7,125.8,344.9,125.8"/>
	<path class="st1" d="M366.4,120.6c0.4-0.1,0.8-0.1,1.2-0.1c0.4,0,0.8,0,1.2,0.1c2,0.3,3.6,1.7,4.5,3.4h5.5c-1.6-4.6-6-7.9-11.1-7.9
		c-6.5,0-11.8,5.3-11.8,11.8c0,6.5,5.3,11.8,11.8,11.8c5.1,0,9.5-3.3,11.1-7.9h-5.5c-0.8,1.8-2.5,3.1-4.5,3.4
		c-0.4,0.1-0.8,0.1-1.2,0.1c-0.4,0-0.8,0-1.2-0.1c-2.1-0.4-3.9-1.8-4.6-3.8c-0.4-1.1-0.7-2.3-0.7-3.6c0-1.3,0.2-2.5,0.7-3.6
		C362.6,122.4,364.3,120.9,366.4,120.6"/>
	<path class="st1" d="M270.4,125.6c-2.7-0.4-4-1.4-4-2.7c0-1.7,1.5-2.4,4-2.4c2.4,0,4,0.6,4,2.9h5.3c0-5.1-4.1-7.2-9.3-7.2
		c-5.2,0-9.3,2.2-9.3,7.2c0,4.1,4.4,5.6,9.3,6.4c3.9,0.6,4.6,1.7,4.6,2.8c0,2.6-2.2,2.9-4.6,2.9s-4.6-0.7-4.6-3.3h-5.3
		c0,5.6,4.8,7.7,10,7.7s10-2,10-7.7C280.4,127.8,275.3,126.4,270.4,125.6"/>
	<path class="st1" d="M321,116.8h-6.2l-9,22.3h5.6l1.8-4.9h9.5l1.8,4.9h5.6L321,116.8z M314.6,130.3l3.3-8.8l3.3,8.8H314.6z"/>
</g>
</svg>
