<?xml version="1.0" encoding="utf-8"?>
<!-- Generator: Adobe Illustrator 15.1.0, SVG Export Plug-In . SVG Version: 6.00 Build 0)  -->
<!DOCTYPE svg PUBLIC "-//W3C//DTD SVG 1.1//EN" "http://www.w3.org/Graphics/SVG/1.1/DTD/svg11.dtd">
<svg version="1.1" id="Layer_1" xmlns="http://www.w3.org/2000/svg" xmlns:xlink="http://www.w3.org/1999/xlink" x="0px" y="0px"
	 width="935.434px" height="283.465px" viewBox="-88.717 -56.232 935.434 283.465"
	 enable-background="new -88.717 -56.232 935.434 283.465" xml:space="preserve">
<g>
	<circle fill="#DD4814" cx="745.199" cy="45.326" r="45.326"/>
	<path fill="#FFFFFF" d="M714.379,39.273c-3.344,0-6.053,2.709-6.053,6.053c0,3.342,2.709,6.051,6.053,6.051
		c3.343,0,6.052-2.709,6.052-6.051C720.43,41.982,717.721,39.273,714.379,39.273z M757.586,66.777
		c-2.895,1.672-3.887,5.371-2.215,8.264c1.67,2.895,5.369,3.887,8.265,2.215c2.895-1.67,3.887-5.369,2.215-8.264
		C764.18,66.1,760.479,65.107,757.586,66.777z M727.524,45.326c0-5.98,2.971-11.264,7.516-14.463l-4.424-7.41
		c-5.295,3.539-9.233,8.947-10.871,15.281c1.91,1.559,3.133,3.932,3.133,6.592c0,2.658-1.223,5.031-3.133,6.59
		c1.636,6.336,5.574,11.744,10.871,15.283l4.424-7.412C730.494,56.59,727.524,51.307,727.524,45.326z M745.199,27.648
		c9.234,0,16.812,7.08,17.605,16.109l8.623-0.127c-0.425-6.666-3.337-12.65-7.812-17.051c-2.301,0.869-4.959,0.736-7.256-0.588
		c-2.301-1.328-3.744-3.568-4.139-6c-2.236-0.617-4.59-0.955-7.023-0.955c-4.184,0-8.139,0.982-11.65,2.721l4.205,7.535
		C740.016,28.24,742.539,27.648,745.199,27.648z M745.199,63.002c-2.66,0-5.184-0.592-7.445-1.645l-4.204,7.535
		c3.512,1.74,7.467,2.723,11.649,2.723c2.435,0,4.787-0.338,7.023-0.957c0.395-2.432,1.838-4.67,4.139-6
		c2.299-1.326,4.955-1.457,7.256-0.588c4.476-4.4,7.387-10.385,7.812-17.051l-8.625-0.127
		C762.01,55.924,754.434,63.002,745.199,63.002z M757.584,23.871c2.896,1.672,6.595,0.682,8.265-2.213
		c1.672-2.895,0.682-6.594-2.213-8.266c-2.896-1.67-6.595-0.678-8.267,2.217C753.699,18.502,754.692,22.201,757.584,23.871z"/>
	<path fill="#DD4814" d="M123.823,164.257c-4.605,1.153-10.684,2.375-18.237,3.669c-7.556,1.297-16.296,1.942-26.226,1.942
		c-8.633,0-15.9-1.261-21.799-3.774c-5.902-2.517-10.65-6.08-14.245-10.686c-3.599-4.604-6.188-10.037-7.77-16.297
		c-1.585-6.258-2.374-13.197-2.374-20.826V55.262h20.072v58.707c0,13.672,2.158,23.455,6.477,29.354
		c4.316,5.902,11.581,8.851,21.799,8.851c2.158,0,4.387-0.071,6.691-0.218c2.3-0.141,4.458-0.323,6.475-0.539
		c2.013-0.216,3.848-0.432,5.504-0.646c1.652-0.215,2.839-0.465,3.562-0.754V55.262h20.072L123.823,164.257L123.823,164.257z"/>
	<path fill="#DD4814" d="M172.817,60.225c2.445-1.581,6.151-3.237,11.115-4.963c4.964-1.728,10.684-2.59,17.159-2.59
		c8.057,0,15.216,1.438,21.476,4.315c6.259,2.88,11.547,6.907,15.863,12.088c4.317,5.18,7.588,11.368,9.821,18.562
		c2.229,7.196,3.346,15.107,3.346,23.74c0,9.066-1.333,17.234-3.993,24.5c-2.664,7.266-6.44,13.417-11.332,18.452
		c-4.894,5.039-10.792,8.923-17.698,11.655c-6.906,2.731-14.677,4.101-23.311,4.101c-9.355,0-17.627-0.646-24.821-1.942
		c-7.196-1.295-13.095-2.588-17.698-3.885V3.459l20.073-3.452V60.225z M172.817,150.014c2.014,0.575,4.856,1.114,8.526,1.616
		c3.669,0.507,8.234,0.757,13.705,0.757c10.792,0,19.425-3.562,25.899-10.684c6.476-7.124,9.713-17.23,9.713-30.327
		c0-5.751-0.576-11.147-1.727-16.187c-1.153-5.035-3.021-9.388-5.611-13.058c-2.59-3.67-5.936-6.547-10.037-8.635
		c-4.101-2.084-9.031-3.129-14.784-3.129c-5.471,0-10.506,0.938-15.108,2.806c-4.607,1.872-8.131,3.815-10.576,5.827V150.014
		L172.817,150.014z"/>
	<path fill="#DD4814" d="M363.613,164.257c-4.606,1.153-10.684,2.375-18.237,3.669c-7.556,1.297-16.296,1.942-26.225,1.942
		c-8.634,0-15.9-1.261-21.8-3.774c-5.902-2.517-10.65-6.08-14.245-10.686c-3.599-4.604-6.188-10.037-7.77-16.297
		c-1.585-6.26-2.375-13.198-2.375-20.827V55.262h20.072v58.707c0,13.672,2.158,23.455,6.476,29.354
		c4.315,5.902,11.581,8.851,21.799,8.851c2.158,0,4.388-0.071,6.691-0.218c2.3-0.141,4.458-0.323,6.475-0.539
		c2.013-0.216,3.848-0.432,5.504-0.646c1.652-0.215,2.84-0.465,3.562-0.754V55.262h20.072L363.613,164.257L363.613,164.257z"/>
	<path fill="#DD4814" d="M392.531,58.499c4.604-1.151,10.718-2.375,18.348-3.671c7.625-1.294,16.401-1.941,26.329-1.941
		c8.922,0,16.33,1.261,22.232,3.776c5.897,2.52,10.609,6.043,14.137,10.576c3.523,4.533,6.006,9.967,7.447,16.296
		c1.436,6.333,2.158,13.312,2.158,20.938v63.022h-20.074v-58.708c0-6.905-0.469-12.803-1.402-17.697
		c-0.938-4.89-2.479-8.849-4.641-11.87c-2.158-3.023-5.037-5.216-8.633-6.584c-3.601-1.367-8.062-2.051-13.381-2.051
		c-2.16,0-4.394,0.074-6.691,0.216c-2.304,0.145-4.499,0.325-6.583,0.541c-2.089,0.215-3.96,0.469-5.61,0.755
		c-1.656,0.29-2.845,0.506-3.562,0.646v94.751h-20.073V58.499L392.531,58.499z"/>
	<path fill="#DD4814" d="M529.585,55.262h42.521v16.835h-42.521v51.799c0,5.61,0.431,10.252,1.295,13.92
		c0.863,3.672,2.158,6.55,3.886,8.635c1.727,2.088,3.885,3.562,6.475,4.425s5.611,1.296,9.064,1.296
		c6.186,0,11.08-0.682,14.678-2.051c3.594-1.366,6.043-2.337,7.338-2.913l4.316,16.403c-2.017,1.008-5.578,2.304-10.685,3.884
		c-5.108,1.582-10.897,2.374-17.375,2.374c-7.627,0-13.92-0.971-18.885-2.913s-8.957-4.856-11.979-8.741
		c-3.021-3.886-5.146-8.668-6.366-14.354c-1.226-5.682-1.836-12.264-1.836-19.748V23.965l20.073-3.453L529.585,55.262
		L529.585,55.262z"/>
	<path fill="#DD4814" d="M681.316,164.257c-4.607,1.153-10.686,2.375-18.238,3.669c-7.555,1.297-16.295,1.942-26.225,1.942
		c-8.633,0-15.9-1.261-21.799-3.774c-5.902-2.517-10.65-6.08-14.246-10.686c-3.599-4.604-6.188-10.037-7.771-16.297
		c-1.586-6.26-2.375-13.198-2.375-20.827V55.262h20.074v58.707c0,13.672,2.158,23.455,6.475,29.354
		c4.316,5.902,11.58,8.851,21.8,8.851c2.157,0,4.387-0.071,6.69-0.218c2.299-0.141,4.459-0.323,6.476-0.539
		c2.014-0.216,3.848-0.432,5.504-0.646c1.651-0.215,2.84-0.465,3.561-0.754V55.262h20.074V164.257L681.316,164.257z"/>
</g>
</svg>
