<?xml version="1.0" encoding="UTF-8" standalone="no"?>
<!-- Generator: Adobe Illustrator 21.1.0, SVG Export Plug-In . SVG Version: 6.00 Build 0)  -->

<svg
   xmlns:dc="http://purl.org/dc/elements/1.1/"
   xmlns:cc="http://creativecommons.org/ns#"
   xmlns:rdf="http://www.w3.org/1999/02/22-rdf-syntax-ns#"
   xmlns:svg="http://www.w3.org/2000/svg"
   xmlns="http://www.w3.org/2000/svg"
   xmlns:sodipodi="http://sodipodi.sourceforge.net/DTD/sodipodi-0.dtd"
   xmlns:inkscape="http://www.inkscape.org/namespaces/inkscape"
   version="1.1"
   id="Layer_1"
   x="0px"
   y="0px"
   viewBox="0 0 381 144"
   xml:space="preserve"
   inkscape:version="0.91 r13725"
   sodipodi:docname="arm.svg"
   width="381"
   height="144"><metadata
     id="metadata11"><rdf:RDF><cc:Work
         rdf:about=""><dc:format>image/svg+xml</dc:format><dc:type
           rdf:resource="http://purl.org/dc/dcmitype/StillImage" /><dc:title></dc:title></cc:Work></rdf:RDF></metadata><defs
     id="defs9" /><sodipodi:namedview
     pagecolor="#ffffff"
     bordercolor="#666666"
     borderopacity="1"
     objecttolerance="10"
     gridtolerance="10"
     guidetolerance="10"
     inkscape:pageopacity="0"
     inkscape:pageshadow="2"
     inkscape:window-width="2560"
     inkscape:window-height="1388"
     id="namedview7"
     showgrid="false"
     inkscape:zoom="0.38562092"
     inkscape:cx="396"
     inkscape:cy="306"
     inkscape:window-x="0"
     inkscape:window-y="24"
     inkscape:window-maximized="0"
     inkscape:current-layer="Layer_1" /><style
     type="text/css"
     id="style3">
	.st0{fill:#0091BD;}
</style><path
     class="st0"
     d="m 125.65,37.850005 15.9,0 0,68.099995 -15.9,0 0,-7.100005 c -7,8.100005 -15.5,9.199995 -20.4,9.199995 -21.000005,0 -33.000005,-17.499995 -33.000005,-36.199985 0,-22.2 15.2,-35.8 33.200005,-35.8 5,0 13.8,1.3 20.2,9.7 l 0,-7.9 z m -37.200005,34.3 c 0,11.79999 7.4,21.69999 18.900005,21.69999 10,0 19.3,-7.3 19.3,-21.49999 0,-14.9 -9.2,-22 -19.3,-22 -11.500005,0 -18.900005,9.7 -18.900005,21.8 z m 71.900005,-34.3 15.9,0 0,6.1 c 1.8,-2.1 4.39999,-4.4 6.59999,-5.7 3.1,-1.8 6.1,-2.3 9.70001,-2.3 3.9,0 8.09999,0.6 12.49999,3.2 l -6.49999,14.4 c -3.6,-2.3 -6.5,-2.4 -8.1,-2.4 -3.4,0 -6.80001,0.5 -9.9,3.7 -4.40001,4.7 -4.40001,11.2 -4.40001,15.7 l 0,35.299995 -15.89999,0 0,-67.999995 z m 54.9,0 15.9,0 0,6.3 c 5.3,-6.5 11.6,-8.1 16.8,-8.1 7.1,0 13.8,3.4 17.6,10 5.7,-8.1 14.2,-10 20.2,-10 8.3,0 15.5,3.9 19.4,10.7 1.30001,2.3 3.6,7.3 3.6,17.2 l 0,42.099985 -15.90001,0 0,-37.499985 c 0,-7.6 -0.8,-10.7 -1.5,-12.1 -1,-2.6 -3.4,-6 -9.09999,-6 -3.90001,0 -7.30001,2.1 -9.40001,5 -2.8,3.9 -3.09999,9.7 -3.09999,15.5 l 0,35.099985 -15.90001,0 0,-37.499985 c 0,-7.6 -0.8,-10.7 -1.5,-12.1 -1,-2.6 -3.4,-6 -9.09999,-6 -3.90001,0 -7.30001,2.1 -9.40001,5 -2.8,3.9 -3.09999,9.7 -3.09999,15.5 l 0,35.099985 -15.5,0 0,-68.199985 z"
     id="path5"
     inkscape:connector-curvature="0"
     style="fill:#0091bd" /></svg>