<?xml version="1.0" encoding="UTF-8" standalone="no"?>
<!-- Created with Inkscape (http://www.inkscape.org/) -->

<svg
   xmlns:dc="http://purl.org/dc/elements/1.1/"
   xmlns:cc="http://creativecommons.org/ns#"
   xmlns:rdf="http://www.w3.org/1999/02/22-rdf-syntax-ns#"
   xmlns:svg="http://www.w3.org/2000/svg"
   xmlns="http://www.w3.org/2000/svg"
   xmlns:sodipodi="http://sodipodi.sourceforge.net/DTD/sodipodi-0.dtd"
   xmlns:inkscape="http://www.inkscape.org/namespaces/inkscape"
   width="634.57739mm"
   height="149.70647mm"
   viewBox="0 0 2248.5012 530.45572"
   id="svg4195"
   version="1.1"
   inkscape:version="0.91 r13725"
   sodipodi:docname="eprosima.svg"
   inkscape:export-filename="D:\Dropbox (eProsima)\shared\Personal\Shared_JorgeMolina_JaimeMartin\emarketing\JML Generated\logo web\logo-eprosima-276x65.png"
   inkscape:export-xdpi="106.30371"
   inkscape:export-ydpi="106.30371">
  <defs
     id="defs4197" />
  <sodipodi:namedview
     id="base"
     pagecolor="#ffffff"
     bordercolor="#666666"
     borderopacity="1.0"
     inkscape:pageopacity="0.0"
     inkscape:pageshadow="2"
     inkscape:zoom="0.90065448"
     inkscape:cx="1153.0502"
     inkscape:cy="266.68889"
     inkscape:document-units="px"
     inkscape:current-layer="layer1"
     showgrid="false"
     inkscape:window-width="2560"
     inkscape:window-height="1416"
     inkscape:window-x="0"
     inkscape:window-y="24"
     inkscape:window-maximized="1"
     fit-margin-top="0"
     fit-margin-left="0"
     fit-margin-right="0"
     fit-margin-bottom="0"
     units="mm" />
  <metadata
     id="metadata4200">
    <rdf:RDF>
      <cc:Work
         rdf:about="">
        <dc:format>image/svg+xml</dc:format>
        <dc:type
           rdf:resource="http://purl.org/dc/dcmitype/StillImage" />
        <dc:title></dc:title>
      </cc:Work>
    </rdf:RDF>
  </metadata>
  <g
     inkscape:label="Layer 1"
     inkscape:groupmode="layer"
     id="layer1"
     transform="translate(-2.0679672,-521.07527)">
    <g
       transform="matrix(9.6392163,0,0,9.6392163,-883.9594,-4948.4474)"
       id="g441">
      <g
         id="g443">
        <path
           style="fill:#3e3e3e"
           inkscape:connector-curvature="0"
           d="m 180.941,583.042 c -2.932,0 -4.398,0 -7.305,0 l 0,2.793 6.714,0 c 0,1.495 0,2.991 0,4.485 l -6.714,0 c 0,1.156 0,2.283 0,3.47 2.906,0 4.6,0 7.561,0 0,1.466 0,2.989 0,4.484 -4.627,0 -8.012,0 -12.582,0 0,-6.601 0,-13.2 0,-19.746 4.57,0 7.702,0 12.326,0 0,1.467 0,2.992 0,4.514 z"
           id="path445" />
        <path
           style="fill:#3e3e3e"
           inkscape:connector-curvature="0"
           d="m 186.769,598.274 c 0,-8.458 0,-16.916 0,-25.411 3.668,0 7.445,0 11.183,0 12.162,0.035 12.162,18.912 0,18.912 l -4.683,0 0,6.499 c -2.178,0 -4.355,0 -6.5,0 z m 11.148,-19.604 c -1.524,-0.036 -3.159,0 -4.647,0 0,2.069 0,5.192 0,7.262 l 4.647,0 c 3.557,0 3.775,-7.225 0,-7.262 z"
           id="path447" />
        <path
           style="fill:#3e3e3e"
           inkscape:connector-curvature="0"
           d="m 228.384,597.684 0,0.727 -5.59,0 -3.354,-5.758 -2.6,0 0,5.758 c -1.677,0 -3.384,0 -5.005,0 0,-6.512 0,-13.023 0,-19.563 2.824,0 5.731,0 8.583,0 7.685,0.026 9.084,9.279 4.139,12.633 l 3.827,6.203 z m -7.965,-14.366 c -1.176,-0.029 -2.404,0 -3.578,0 0,1.591 0,3.326 0,4.891 l 3.578,0 c 2.709,0 2.851,-4.863 0,-4.891 z"
           id="path449" />
        <path
           style="fill:#3e3e3e"
           inkscape:connector-curvature="0"
           d="m 230.132,588.655 c 0,-13.526 20.066,-13.526 20.066,0 0.001,13.557 -20.066,13.557 -20.066,0 z m 14.951,0 c 0,-7.042 -9.811,-7.042 -9.811,0 0.001,7.101 9.811,7.101 9.811,0 z"
           id="path451" />
        <path
           style="fill:#3e3e3e"
           inkscape:connector-curvature="0"
           d="m 263.897,592.652 c 0,-1.369 -1.622,-1.678 -3.578,-1.79 -4.248,-0.306 -7.044,-1.759 -7.099,-6.007 -0.168,-8.441 15.037,-8.441 14.925,0 -1.761,0 -3.048,0 -4.752,0 0,-2.6 -5.254,-2.375 -5.422,-0.057 -0.112,1.481 1.341,1.789 3.103,1.984 3.885,0.419 7.686,1.006 7.686,5.896 0,8.219 -15.932,8.358 -15.818,-0.25 1.676,0 3.13,0 4.834,0 -0.001,2.488 6.121,2.516 6.121,0.224 z"
           id="path453" />
        <path
           style="fill:#3e3e3e"
           inkscape:connector-curvature="0"
           d="m 278.164,594.021 0,4.389 -4.946,0 0,-4.389 0,0 0,-10.816 0,0 0,-4.358 4.946,0 0,4.358 0,0 0,10.816 0,0 z"
           id="path455" />
        <path
           style="fill:#3e3e3e"
           inkscape:connector-curvature="0"
           d="m 300.31,578.79 1.789,0 0,19.62 c -1.702,0 -3.408,0 -5.115,0 l 0,-8.72 -4.163,4.359 -0.561,0 -4.135,-4.359 0,8.72 c -1.706,0 -3.408,0 -5.116,0 l 0,-19.62 1.844,0 7.659,8.497 7.798,-8.497 z"
           id="path457" />
        <path
           style="fill:#3e3e3e"
           inkscape:connector-curvature="0"
           d="m 319.15,595.951 -7.716,0 -1.145,2.459 -4.89,0 0,-0.727 8.803,-19.09 2.151,0 8.832,19.09 0,0.727 -4.891,0 -1.144,-2.459 z m -3.884,-9.419 -2.21,5.143 4.471,0 -2.261,-5.143 z"
           id="path459" />
      </g>
      <g
         id="g461">
        <path
           style="fill:#034579"
           inkscape:connector-curvature="0"
           d="m 129.668,585.73 c -0.887,-0.888 -2.066,-1.373 -3.323,-1.373 -1.254,0 -2.436,0.485 -3.32,1.373 -0.888,0.889 -1.378,2.065 -1.378,3.324 0,1.253 0.49,2.434 1.378,3.322 l 7.913,7.914 -7.913,7.915 c -0.175,0.175 -0.329,0.365 -0.473,0.562 l -2.342,2.34 -7.916,-7.913 c -0.704,-0.706 -1.593,-1.155 -2.561,-1.311 -0.308,-0.064 -0.625,-0.099 -0.946,-0.1 l -4.712,-0.044 -7.462,-0.021 c -2.581,-0.006 -4.688,2.094 -4.694,4.676 0,1.252 0.482,2.43 1.367,3.315 0.884,0.888 2.061,1.377 3.31,1.378 l 10.327,0.025 9.964,9.964 c 0.888,0.888 2.066,1.376 3.323,1.376 1.256,0 2.437,-0.488 3.324,-1.376 l 11.235,-11.238 c 0.176,-0.175 0.329,-0.363 0.47,-0.556 l 5.67,-5.67 c 0.888,-0.889 1.376,-2.068 1.376,-3.324 0,-1.256 -0.488,-2.438 -1.376,-3.324 L 129.668,585.73 Z"
           id="path463" />
        <path
           style="fill:#1b8abd"
           inkscape:connector-curvature="0"
           d="m 153.082,580.1 c -0.886,-0.886 -2.061,-1.374 -3.314,-1.378 l -4.709,-0.042 -5.614,-0.014 -9.868,-9.866 c -0.771,-0.771 -1.793,-1.253 -2.874,-1.355 -0.149,-0.015 -0.301,-0.021 -0.451,-0.021 -0.3,0 -0.602,0.028 -0.896,0.084 -0.923,0.179 -1.763,0.624 -2.429,1.293 l -10.836,10.837 c -0.157,0.157 -0.297,0.325 -0.428,0.499 l -5.703,5.705 c -0.77,0.769 -1.252,1.79 -1.356,2.872 -0.015,0.149 -0.02,0.301 -0.02,0.451 0,0.301 0.028,0.602 0.084,0.897 0.181,0.922 0.624,1.76 1.292,2.427 l 10.838,10.837 c 0.888,0.887 2.068,1.375 3.326,1.375 1.253,0 2.432,-0.488 3.322,-1.375 1.832,-1.832 1.83,-4.814 -0.003,-6.646 l -7.513,-7.515 7.912,-7.916 c 0.157,-0.158 0.301,-0.328 0.434,-0.504 l 1.975,-1.975 7.915,7.913 c 0.887,0.888 2.069,1.375 3.325,1.375 0.162,0 0.321,-0.009 0.478,-0.024 l 11.801,0.024 c 1.216,-0.011 2.361,-0.482 3.23,-1.328 0.122,-0.117 0.239,-0.243 0.345,-0.375 0.692,-0.831 1.071,-1.89 1.071,-2.979 l 0.031,0.038 c 0.004,-1.25 -0.483,-2.427 -1.365,-3.314 z"
           id="path465" />
      </g>
      <g
         id="g467">
        <path
           style="fill:#034579"
           inkscape:connector-curvature="0"
           d="m 179.725,609.192 0,9.851 -0.8,0 0,-9.851 -3.146,0 0,-0.711 7.105,0 0,0.711 -3.159,0 z"
           id="path469" />
        <path
           style="fill:#034579"
           inkscape:connector-curvature="0"
           d="m 188.908,619.043 0,-4.436 c 0,-1.379 -0.695,-2.137 -1.974,-2.137 -1.272,0 -2.016,0.787 -2.016,2.137 l 0,4.436 -0.757,0 0,-10.562 0.757,0 0,4.257 c 0.532,-0.624 1.245,-0.935 2.106,-0.935 1.633,0 2.641,1.023 2.641,2.67 l 0,4.569 -0.757,0 z"
           id="path471" />
        <path
           style="fill:#034579"
           inkscape:connector-curvature="0"
           d="m 192.186,615.632 c 0,1.81 0.817,2.818 2.33,2.818 0.845,0 1.364,-0.253 1.974,-0.861 l 0.562,0.445 c -0.727,0.727 -1.396,1.098 -2.583,1.098 -1.971,0 -3.038,-1.275 -3.038,-3.663 0,-2.301 1.067,-3.665 2.863,-3.665 1.779,0 2.863,1.306 2.863,3.486 l 0,0.342 -4.971,0 z m 3.962,-1.959 c -0.312,-0.741 -1.037,-1.202 -1.854,-1.202 -0.817,0 -1.544,0.461 -1.856,1.202 -0.177,0.444 -0.222,0.668 -0.252,1.35 l 4.216,0 c -0.031,-0.682 -0.076,-0.906 -0.254,-1.35 z"
           id="path473" />
        <path
           style="fill:#034579"
           inkscape:connector-curvature="0"
           d="m 210.433,619.043 0,-8.707 -3.203,7.223 -0.802,0 -3.264,-7.223 0,8.707 -0.8,0 0,-10.562 0.8,0 3.679,8.144 3.59,-8.144 0.802,0 0,10.562 -0.802,0 z"
           id="path475" />
        <path
           style="fill:#034579"
           inkscape:connector-curvature="0"
           d="m 213.607,609.416 0,-0.935 0.936,0 0,0.935 -0.936,0 z m 0.09,9.627 0,-7.15 0.755,0 0,7.15 -0.755,0 z"
           id="path477" />
        <path
           style="fill:#034579"
           inkscape:connector-curvature="0"
           d="m 221.099,619.043 0,-0.92 c -0.622,0.831 -1.319,1.009 -2.119,1.009 -0.744,0 -1.381,-0.252 -1.752,-0.623 -0.728,-0.727 -0.92,-1.913 -0.92,-3.04 0,-1.128 0.192,-2.315 0.92,-3.042 0.371,-0.371 1.008,-0.623 1.752,-0.623 0.8,0 1.497,0.178 2.119,1.009 l 0,-4.331 0.758,0 0,10.562 -0.758,0 z m -2.017,-6.572 c -1.75,0 -2.016,1.514 -2.016,2.998 0,1.482 0.266,2.996 2.016,2.996 1.752,0 2.018,-1.514 2.018,-2.996 -0.001,-1.485 -0.267,-2.998 -2.018,-2.998 z"
           id="path479" />
        <path
           style="fill:#034579"
           inkscape:connector-curvature="0"
           d="m 228.5,619.043 0,-0.92 c -0.622,0.831 -1.318,1.009 -2.12,1.009 -0.74,0 -1.38,-0.252 -1.75,-0.623 -0.728,-0.727 -0.918,-1.913 -0.918,-3.04 0,-1.128 0.19,-2.315 0.918,-3.042 0.37,-0.371 1.01,-0.623 1.75,-0.623 0.802,0 1.498,0.178 2.12,1.009 l 0,-4.331 0.759,0 0,10.562 -0.759,0 z m -2.016,-6.572 c -1.75,0 -2.018,1.514 -2.018,2.998 0,1.482 0.268,2.996 2.018,2.996 1.75,0 2.017,-1.514 2.017,-2.996 -0.001,-1.485 -0.267,-2.998 -2.017,-2.998 z"
           id="path481" />
        <path
           style="fill:#034579"
           inkscape:connector-curvature="0"
           d="m 233.22,619.043 c -1.158,0 -1.721,-0.741 -1.721,-1.854 l 0,-8.707 0.755,0 0,8.691 c 0,0.803 0.255,1.203 1.1,1.203 l 0.519,0 0,0.667 -0.653,0 z"
           id="path483" />
        <path
           style="fill:#034579"
           inkscape:connector-curvature="0"
           d="m 235.147,615.632 c 0,1.81 0.814,2.818 2.328,2.818 0.844,0 1.365,-0.253 1.972,-0.861 l 0.565,0.445 c -0.729,0.727 -1.396,1.098 -2.581,1.098 -1.974,0 -3.042,-1.275 -3.042,-3.663 0,-2.301 1.068,-3.665 2.862,-3.665 1.781,0 2.865,1.306 2.865,3.486 l 0,0.342 -4.969,0 z m 3.96,-1.959 c -0.313,-0.741 -1.039,-1.202 -1.855,-1.202 -0.817,0 -1.542,0.461 -1.854,1.202 -0.178,0.444 -0.223,0.668 -0.251,1.35 l 4.213,0 c -0.031,-0.682 -0.076,-0.906 -0.253,-1.35 z"
           id="path485" />
        <path
           style="fill:#034579"
           inkscape:connector-curvature="0"
           d="m 248.509,619.043 -0.771,0 -2.019,-5.964 -2.015,5.964 -0.772,0 -2.286,-7.15 0.83,0 1.827,6.26 2.045,-6.26 0.742,0 2.046,6.26 1.825,-6.26 0.832,0 -2.284,7.15 z"
           id="path487" />
        <path
           style="fill:#034579"
           inkscape:connector-curvature="0"
           d="m 256.032,619.043 0,-0.713 c -0.609,0.609 -1.173,0.802 -2.182,0.802 -1.052,0 -1.646,-0.178 -2.105,-0.652 -0.326,-0.342 -0.521,-0.86 -0.521,-1.395 0,-1.305 0.935,-2.062 2.492,-2.062 l 2.315,0 0,-0.801 c 0,-1.143 -0.563,-1.751 -2.019,-1.751 -1.01,0 -1.527,0.253 -1.973,0.905 l -0.548,-0.474 c 0.606,-0.847 1.364,-1.099 2.521,-1.099 1.885,0 2.774,0.845 2.774,2.344 l 0,4.896 -0.754,0 z m 0,-3.411 -2.226,0 c -1.231,0 -1.825,0.489 -1.825,1.438 0,0.949 0.581,1.395 1.869,1.395 0.653,0 1.274,-0.061 1.781,-0.549 0.267,-0.253 0.4,-0.697 0.4,-1.365 l 0,-0.919 z"
           id="path489" />
        <path
           style="fill:#034579"
           inkscape:connector-curvature="0"
           d="m 263.017,613.034 c -0.43,-0.429 -0.755,-0.563 -1.349,-0.563 -1.231,0 -1.916,1.009 -1.916,2.166 l 0,4.406 -0.755,0 0,-7.15 0.755,0 0,0.95 c 0.416,-0.668 1.247,-1.039 2.093,-1.039 0.684,0 1.217,0.178 1.722,0.683 l -0.55,0.547 z"
           id="path491" />
        <path
           style="fill:#034579"
           inkscape:connector-curvature="0"
           d="m 264.277,615.632 c 0,1.81 0.816,2.818 2.33,2.818 0.844,0 1.364,-0.253 1.973,-0.861 l 0.562,0.445 c -0.728,0.727 -1.393,1.098 -2.582,1.098 -1.973,0 -3.042,-1.275 -3.042,-3.663 0,-2.301 1.069,-3.665 2.864,-3.665 1.78,0 2.863,1.306 2.863,3.486 l 0,0.342 -4.968,0 z m 3.959,-1.959 c -0.31,-0.741 -1.037,-1.202 -1.854,-1.202 -0.815,0 -1.543,0.461 -1.854,1.202 -0.179,0.444 -0.222,0.668 -0.252,1.35 l 4.212,0 c -0.028,-0.682 -0.073,-0.906 -0.252,-1.35 z"
           id="path493" />
        <path
           style="fill:#034579"
           inkscape:connector-curvature="0"
           d="m 274.455,619.043 0,-10.562 6.408,0 0,0.711 -5.606,0 0,4.17 4.774,0 0,0.711 -4.774,0 0,4.257 5.606,0 0,0.713 -6.408,0 z"
           id="path495" />
        <path
           style="fill:#034579"
           inkscape:connector-curvature="0"
           d="m 286.395,619.043 -1.884,-3.011 -1.912,3.011 -0.922,0 2.418,-3.649 -2.313,-3.501 0.919,0 1.811,2.878 1.781,-2.878 0.918,0 -2.313,3.501 2.418,3.649 -0.921,0 z"
           id="path497" />
        <path
           style="fill:#034579"
           inkscape:connector-curvature="0"
           d="m 293.366,618.509 c -0.37,0.371 -1.007,0.623 -1.748,0.623 -0.802,0 -1.499,-0.178 -2.122,-1.009 l 0,4.332 -0.757,0 0,-10.562 0.757,0 0,0.92 c 0.623,-0.831 1.32,-1.009 2.122,-1.009 0.741,0 1.378,0.252 1.748,0.623 0.729,0.727 0.921,1.914 0.921,3.042 0,1.127 -0.192,2.313 -0.921,3.04 z m -1.854,-6.038 c -1.749,0 -2.017,1.514 -2.017,2.998 0,1.482 0.268,2.996 2.017,2.996 1.751,0 2.018,-1.514 2.018,-2.996 0,-1.485 -0.267,-2.998 -2.018,-2.998 z"
           id="path499" />
        <path
           style="fill:#034579"
           inkscape:connector-curvature="0"
           d="m 296.483,615.632 c 0,1.81 0.815,2.818 2.329,2.818 0.843,0 1.363,-0.253 1.971,-0.861 l 0.565,0.445 c -0.729,0.727 -1.396,1.098 -2.579,1.098 -1.975,0 -3.044,-1.275 -3.044,-3.663 0,-2.301 1.069,-3.665 2.864,-3.665 1.78,0 2.862,1.306 2.862,3.486 l 0,0.342 -4.968,0 z m 3.961,-1.959 c -0.312,-0.741 -1.039,-1.202 -1.854,-1.202 -0.816,0 -1.543,0.461 -1.854,1.202 -0.179,0.444 -0.224,0.668 -0.252,1.35 l 4.213,0 c -0.03,-0.682 -0.077,-0.906 -0.253,-1.35 z"
           id="path501" />
        <path
           style="fill:#034579"
           inkscape:connector-curvature="0"
           d="m 307.314,613.034 c -0.432,-0.429 -0.761,-0.563 -1.353,-0.563 -1.23,0 -1.913,1.009 -1.913,2.166 l 0,4.406 -0.757,0 0,-7.15 0.757,0 0,0.95 c 0.415,-0.668 1.248,-1.039 2.093,-1.039 0.682,0 1.216,0.178 1.72,0.683 l -0.547,0.547 z"
           id="path503" />
        <path
           style="fill:#034579"
           inkscape:connector-curvature="0"
           d="m 310.65,619.043 c -1.129,0 -1.722,-0.787 -1.722,-1.87 l 0,-4.716 -0.978,0 0,-0.564 0.978,0 0,-2.285 0.758,0 0,2.285 1.615,0 0,0.564 -1.615,0 0,4.731 c 0,0.743 0.341,1.188 1.097,1.188 l 0.519,0 0,0.667 -0.652,0 z"
           id="path505" />
        <path
           style="fill:#034579"
           inkscape:connector-curvature="0"
           d="m 315.16,619.132 c -1.246,0 -2.166,-0.326 -2.893,-1.023 l 0.519,-0.52 c 0.564,0.594 1.32,0.876 2.344,0.876 1.396,0 2.151,-0.489 2.151,-1.454 0,-0.741 -0.431,-1.113 -1.365,-1.2 l -1.187,-0.104 c -1.438,-0.12 -2.149,-0.757 -2.149,-1.87 0,-1.23 1.008,-2.032 2.564,-2.032 0.979,0 1.885,0.282 2.508,0.757 l -0.505,0.504 c -0.548,-0.401 -1.216,-0.607 -2.003,-0.607 -1.171,0 -1.825,0.503 -1.825,1.379 0,0.741 0.446,1.113 1.456,1.202 l 1.156,0.104 c 1.186,0.104 2.092,0.475 2.092,1.869 0,1.303 -1.112,2.119 -2.863,2.119 z"
           id="path507" />
      </g>
    </g>
  </g>
</svg>
