<svg xmlns="http://www.w3.org/2000/svg" xmlns:xlink="http://www.w3.org/1999/xlink" width="600" height="92">
  <g fill="#034ea2" transform="matrix(2.0134 0 0 2.0134 -2.01 -1.85)">
    <path id="S" d="M20.78 32.93c.41 1.03.28 2.35.08 3.15-.35 1.42-1.31 2.87-4.15 2.87-2.66 0-4.28-1.54-4.28-3.86v-4.13H1v3.28c0 9.5 7.47 12.37 15.48 12.37 7.7 0 14.04-2.62 15.05-9.73.52-3.68.14-6.09-.04-6.98-1.8-8.92-17.96-11.58-19.17-16.57a5.46 5.46 0 0 1-.04-2.24c.3-1.37 1.23-2.86 3.89-2.86 2.5 0 3.95 1.54 3.95 3.86v2.64h10.63v-3C30.75 2.45 22.42 1 16.4 1 8.82 1 2.63 3.51 1.5 10.46c-.3 1.9-.35 3.6.1 5.74 1.85 8.7 16.98 11.22 19.18 16.73"/>
    <path d="M46.6 2.36l-7.9 42.59h11.51L56.04 6.3h.24l5.67 38.65H73.4l-7.85-42.6zM110.95 2.36l-5.25 32.56h-.25l-5.24-32.56H82.84l-.94 42.59h10.66l.26-38.29h.24l7.11 38.29h10.81l7.12-38.28h.23l.27 38.28h10.65l-.94-42.6z"/>
    <use transform="translate(138.47 -.08)" xlink:href="#S"/>
    <path d="M195 38.57c2.96 0 3.87-2.04 4.08-3.08.09-.46.1-1.08.1-1.63V2.36h10.78v30.53a37 37 0 0 1-.1 2.8c-.75 7.95-7.03 10.53-14.86 10.53-7.84 0-14.12-2.58-14.87-10.53-.03-.42-.11-2.02-.1-2.8V2.35h10.78v31.5c-.01.56.01 1.18.1 1.64.2 1.04 1.12 3.08 4.09 3.08M247.08 2.36l.58 33.43h-.23l-9.8-33.43h-15.8V44.5h10.47l-.58-34.59h.23l10.51 34.59h15.17V2.36zM283.83 38.13c3.08 0 4.16-1.95 4.35-3.1.09-.47.1-1.07.1-1.6v-6.2h-4.37v-6.2H299v11.42c0 .8-.02 1.38-.15 2.8-.7 7.76-7.43 10.53-14.98 10.53-7.55 0-14.27-2.77-14.98-10.53-.12-1.42-.15-2-.15-2.8V14.53c0-.76.1-2.1.18-2.8.95-7.97 7.4-10.53 14.95-10.53 7.55 0 14.17 2.54 14.95 10.52.14 1.36.1 2.8.1 2.8v1.43h-10.74v-2.39s0-1-.13-1.62c-.2-.94-1-3.1-4.26-3.1-3.1 0-4.01 2.05-4.24 3.1-.13.56-.18 1.32-.18 2.01v19.47c0 .54.02 1.14.1 1.62.2 1.14 1.28 3.09 4.36 3.09"/>
  </g>
</svg>